<svg xmlns="http://www.w3.org/2000/svg" width="595" height="575" viewBox="0 0 595 575" preserveAspectRatio="xMidYMid meet" role="img" aria-label="One bedroom floor plan">
<rect width="595" height="575" fill="#F2EEE5"/>
<g transform="translate(86,86)">
<rect x="0.0" y="0.0" width="248.4" height="211.6" fill="#E8E3D6" stroke="#1A1814" stroke-width="2.2"/>
<rect x="248.4" y="0.0" width="174.8" height="119.6" fill="#E2DCCD" stroke="#1A1814" stroke-width="2.2"/>
<rect x="248.4" y="119.6" width="174.8" height="92.0" fill="#DCD9CF" stroke="#1A1814" stroke-width="2.2"/>
<rect x="0.0" y="211.6" width="248.4" height="138.0" fill="#E2DCCD" stroke="#1A1814" stroke-width="2.2"/>
<rect x="248.4" y="211.6" width="174.8" height="138.0" fill="#EFEBE0" stroke="#1A1814" stroke-width="2.2"/>
<rect x="0" y="0" width="423.2" height="349.6" fill="none" stroke="#1A1814" stroke-width="7"/>
<rect x="248.4" y="46.0" width="2.8" height="41.4" fill="#F2EEE5"/>
<rect x="248.4" y="147.2" width="2.8" height="36.8" fill="#F2EEE5"/>
<rect x="73.6" y="211.6" width="46.0" height="2.8" fill="#F2EEE5"/>
<rect x="294.4" y="211.6" width="46.0" height="2.8" fill="#F2EEE5"/>
<text x="124.2" y="102.8" text-anchor="middle" font-family="Jost, Helvetica, Arial, sans-serif" font-size="13.5" letter-spacing="1.6" fill="#1A1814">LIVING &amp; DINING</text>
<text x="124.2" y="119.8" text-anchor="middle" font-family="Jost, Helvetica, Arial, sans-serif" font-size="10" letter-spacing="0.8" fill="#6B6559">5.4 × 4.6 m</text>
<text x="335.8" y="56.8" text-anchor="middle" font-family="Jost, Helvetica, Arial, sans-serif" font-size="13.5" letter-spacing="1.6" fill="#1A1814">KITCHEN</text>
<text x="335.8" y="73.8" text-anchor="middle" font-family="Jost, Helvetica, Arial, sans-serif" font-size="10" letter-spacing="0.8" fill="#6B6559">3.8 × 2.6 m</text>
<text x="335.8" y="162.6" text-anchor="middle" font-family="Jost, Helvetica, Arial, sans-serif" font-size="11.5" letter-spacing="1.6" fill="#1A1814">BATH</text>
<text x="335.8" y="179.6" text-anchor="middle" font-family="Jost, Helvetica, Arial, sans-serif" font-size="10" letter-spacing="0.8" fill="#6B6559">3.8 × 2.0 m</text>
<text x="124.2" y="277.6" text-anchor="middle" font-family="Jost, Helvetica, Arial, sans-serif" font-size="13.5" letter-spacing="1.6" fill="#1A1814">BEDROOM</text>
<text x="124.2" y="294.6" text-anchor="middle" font-family="Jost, Helvetica, Arial, sans-serif" font-size="10" letter-spacing="0.8" fill="#6B6559">5.4 × 3.0 m</text>
<text x="335.8" y="277.6" text-anchor="middle" font-family="Jost, Helvetica, Arial, sans-serif" font-size="13.5" letter-spacing="1.6" fill="#1A1814">BALCONY</text>
<text x="335.8" y="294.6" text-anchor="middle" font-family="Jost, Helvetica, Arial, sans-serif" font-size="10" letter-spacing="0.8" fill="#6B6559">3.8 × 3.0 m</text>
<line x1="0" y1="-34" x2="423.2" y2="-34" stroke="#6B6559" stroke-width="1"/>
<line x1="0.0" y1="-40" x2="0.0" y2="-28" stroke="#6B6559" stroke-width="1"/>
<line x1="423.2" y1="-40" x2="423.2" y2="-28" stroke="#6B6559" stroke-width="1"/>
<text x="211.6" y="-42" text-anchor="middle" font-family="Jost, Helvetica, Arial, sans-serif" font-size="11" letter-spacing="1.2" fill="#6B6559">9.2 m</text>
<line x1="-34" y1="0" x2="-34" y2="349.6" stroke="#6B6559" stroke-width="1"/>
<line x1="-40" y1="0.0" x2="-28" y2="0.0" stroke="#6B6559" stroke-width="1"/>
<line x1="-40" y1="349.6" x2="-28" y2="349.6" stroke="#6B6559" stroke-width="1"/>
<text x="-42" y="174.8" text-anchor="middle" font-family="Jost, Helvetica, Arial, sans-serif" font-size="11" letter-spacing="1.2" fill="#6B6559" transform="rotate(-90,-42,174.8)">7.6 m</text>
<g transform="translate(457.2,10)"><path d="M0,26 L0,0 M0,0 L-5,9 M0,0 L5,9" stroke="#1A1814" stroke-width="1.4" fill="none"/><text x="0" y="40" text-anchor="middle" font-family="Jost, Helvetica, Arial, sans-serif" font-size="10" letter-spacing="1.4" fill="#6B6559">N</text></g>
</g>
<line x1="86" y1="519" x2="509" y2="519" stroke="#C9C2B2" stroke-width="1"/>
<text x="86" y="541" font-family="Jost, Helvetica, Arial, sans-serif" font-size="12.5" letter-spacing="2.6" fill="#1A1814">1 BHK</text>
<text x="509" y="541" text-anchor="end" font-family="Jost, Helvetica, Arial, sans-serif" font-size="11" letter-spacing="1.2" fill="#6B6559">Indicative layout · not to scale</text>
</svg>